<svg width="80" height="80" viewBox="0 0 99 91" fill="none" xmlns="http://www.w3.org/2000/svg">
<g filter="url(#filter0_dif_2_13)">
<circle cx="49" cy="46" r="45" fill="rgb(35, 46, 17)"/>
</g>
<path d="M47.8892 27.1328C47.8892 26.415 47.9507 25.7896 48.0737 25.2563C48.1968 24.7231 48.4326 24.2822 48.7812 23.9336C49.1299 23.5645 49.6118 23.2876 50.2271 23.103C50.8423 22.9185 51.6421 22.8262 52.6265 22.8262H67.4229C68.9609 22.8262 70.4888 22.939 72.0063 23.1646C73.5239 23.3696 74.9697 23.749 76.3438 24.3027C77.7178 24.8564 78.9893 25.6255 80.1582 26.6099C81.3477 27.5737 82.373 28.8247 83.2344 30.3628C84.0957 31.9009 84.7725 33.7466 85.2646 35.8999C85.7568 38.0532 86.0029 40.5859 86.0029 43.498C86.0029 46.9229 85.7363 49.8862 85.2031 52.3882C84.6904 54.8696 83.9829 56.9819 83.0806 58.7251C82.1987 60.4683 81.1426 61.8833 79.9121 62.9702C78.7021 64.0366 77.3896 64.8774 75.9746 65.4927C74.5801 66.0874 73.124 66.4873 71.6064 66.6924C70.1094 66.8975 68.6123 67 67.1152 67H52.6265C51.6421 67 50.8423 66.9077 50.2271 66.7231C49.6118 66.5386 49.1299 66.272 48.7812 65.9233C48.4326 65.5747 48.1968 65.1338 48.0737 64.6006C47.9507 64.0674 47.8892 63.4419 47.8892 62.7241V27.1328ZM81.6655 44.144C81.6655 41.6011 81.4604 39.2837 81.0503 37.1919C80.6401 35.1001 79.9941 33.3159 79.1123 31.8394C78.2305 30.3628 77.1025 29.2144 75.7285 28.394C74.375 27.5737 72.7446 27.1533 70.8374 27.1328V62.7241C72.7446 62.7036 74.3853 62.2114 75.7593 61.2476C77.1333 60.2632 78.251 58.9302 79.1123 57.2485C79.9941 55.5669 80.6401 53.6084 81.0503 51.373C81.4604 49.1172 81.6655 46.7075 81.6655 44.144Z" fill="#F7F7F2"/>
<path d="M39.7534 47.5278L32.5244 60.8477C32.2168 61.4219 31.8477 61.9038 31.417 62.2935C30.9863 62.6626 30.3916 62.8472 29.6328 62.8472C28.9355 62.8472 28.3511 62.6523 27.8794 62.2627C27.4282 61.873 27.0488 61.4116 26.7412 60.8784L19.1123 47.7739C19.2354 50.5425 19.3481 53.0957 19.4507 55.4336C19.4917 56.4385 19.5327 57.4434 19.5737 58.4482C19.6147 59.4531 19.6558 60.3862 19.6968 61.2476C19.7378 62.1089 19.7686 62.8779 19.7891 63.5547C19.8301 64.2109 19.8608 64.6929 19.8813 65.0005C19.9019 65.3081 19.8916 65.585 19.8506 65.8311C19.8301 66.0771 19.7583 66.2925 19.6353 66.4771C19.5122 66.6411 19.3379 66.7744 19.1123 66.877C18.8867 66.959 18.5791 67 18.1895 67H14.8057C14.4365 67 14.0879 66.8872 13.7598 66.6616C13.4521 66.4155 13.2983 65.9438 13.2983 65.2466V26.1177C13.2983 25.728 13.3496 25.3384 13.4521 24.9487C13.5752 24.5591 13.77 24.2104 14.0366 23.9028C14.3237 23.5747 14.6929 23.3184 15.144 23.1338C15.5952 22.9287 16.1489 22.8262 16.8052 22.8262H26.7104C27.5103 22.8262 28.1973 22.9697 28.7715 23.2568C29.3457 23.5234 29.8379 23.9746 30.248 24.6104L38.5229 37.7456L44.0601 27.1328C44.3882 26.4971 44.7061 25.9229 45.0137 25.4102C45.3213 24.877 45.6802 24.4258 46.0903 24.0566C46.521 23.667 47.0439 23.3696 47.6592 23.1646C48.2949 22.939 49.105 22.8262 50.0894 22.8262H58.272C59.0513 22.8262 59.7178 22.9287 60.2715 23.1338C60.8457 23.3389 61.3071 23.6157 61.6558 23.9644C62.0249 24.313 62.2915 24.7231 62.4556 25.1948C62.6196 25.6665 62.7017 26.1792 62.7017 26.7329V62.7241C62.7017 63.3599 62.6504 63.9443 62.5479 64.4775C62.4453 64.9902 62.23 65.4414 61.9019 65.8311C61.5942 66.2002 61.1431 66.4873 60.5483 66.6924C59.9741 66.8975 59.2153 67 58.272 67H44.0601C43.2192 67 42.522 66.9077 41.9683 66.7231C41.4146 66.5386 40.9736 66.272 40.6455 65.9233C40.3174 65.5747 40.0815 65.1338 39.938 64.6006C39.8149 64.0674 39.7534 63.4419 39.7534 62.7241V47.5278Z" fill="#F7F7F2"/>
<defs>
<filter id="filter0_dif_2_13" x="0" y="0" width="98" height="99" filterUnits="userSpaceOnUse" color-interpolation-filters="sRGB">
<feFlood flood-opacity="0" result="BackgroundImageFix"/>
<feColorMatrix in="SourceAlpha" type="matrix" values="0 0 0 0 0 0 0 0 0 0 0 0 0 0 0 0 0 0 127 0" result="hardAlpha"/>
<feOffset dy="4"/>
<feGaussianBlur stdDeviation="2"/>
<feComposite in2="hardAlpha" operator="out"/>
<feColorMatrix type="matrix" values="0 0 0 0 0 0 0 0 0 0 0 0 0 0 0 0 0 0 0.25 0"/>
<feBlend mode="normal" in2="BackgroundImageFix" result="effect1_dropShadow_2_13"/>
<feBlend mode="normal" in="SourceGraphic" in2="effect1_dropShadow_2_13" result="shape"/>
<feColorMatrix in="SourceAlpha" type="matrix" values="0 0 0 0 0 0 0 0 0 0 0 0 0 0 0 0 0 0 127 0" result="hardAlpha"/>
<feOffset dy="4"/>
<feGaussianBlur stdDeviation="2"/>
<feComposite in2="hardAlpha" operator="arithmetic" k2="-1" k3="1"/>
<feColorMatrix type="matrix" values="0 0 0 0 0 0 0 0 0 0 0 0 0 0 0 0 0 0 0.25 0"/>
<feBlend mode="normal" in2="shape" result="effect2_innerShadow_2_13"/>
<feGaussianBlur stdDeviation="0.5" result="effect3_foregroundBlur_2_13"/>
</filter>
</defs>
</svg>
